<?xml version="1.0" encoding="UTF-8" standalone="no"?>
<svg
   xmlns:dc="http://purl.org/dc/elements/1.1/"
   xmlns:cc="http://creativecommons.org/ns#"
   xmlns:rdf="http://www.w3.org/1999/02/22-rdf-syntax-ns#"
   xmlns:svg="http://www.w3.org/2000/svg"
   xmlns="http://www.w3.org/2000/svg"
   xmlns:sodipodi="http://sodipodi.sourceforge.net/DTD/sodipodi-0.dtd"
   xmlns:inkscape="http://www.inkscape.org/namespaces/inkscape"
   width="195.60982"
   height="58.442722"
   viewBox="0 0 195.60982 58.442722"
   version="1.1"
   id="svg4"
   sodipodi:docname="oi-logo.svg"
   style="fill:none"
   inkscape:version="0.92.5 (2060ec1f9f, 2020-04-08)">
  <metadata
     id="metadata10">
    <rdf:RDF>
      <cc:Work
         rdf:about="">
        <dc:format>image/svg+xml</dc:format>
        <dc:type
           rdf:resource="http://purl.org/dc/dcmitype/StillImage" />
        <dc:title></dc:title>
      </cc:Work>
    </rdf:RDF>
  </metadata>
  <defs
     id="defs8" />
  <sodipodi:namedview
     pagecolor="#ffffff"
     bordercolor="#666666"
     borderopacity="1"
     objecttolerance="10"
     gridtolerance="10"
     guidetolerance="10"
     inkscape:pageopacity="0"
     inkscape:pageshadow="2"
     inkscape:window-width="1608"
     inkscape:window-height="986"
     id="namedview6"
     showgrid="false"
     inkscape:zoom="1.2518676"
     inkscape:cx="-7.3027469"
     inkscape:cy="41.353771"
     inkscape:window-x="72"
     inkscape:window-y="27"
     inkscape:window-maximized="1"
     inkscape:current-layer="svg4" />
  <path
     d="m 16.550028,34.500002 c 9.85,0 16.55,-7.4 16.55,-17.25 C 33.100028,7.4000016 26.400028,0 16.550028,0 6.649998,0 0,7.4000016 0,17.250002 c 0,9.85 6.649998,17.25 16.550028,17.25 z m 0,-3.7 c -7.50003,0 -12.25003,-5.8 -12.25003,-13.55 0,-7.8000004 4.75,-13.5500004 12.25003,-13.5500004 7.45,0 12.25,5.75 12.25,13.5500004 0,7.75 -4.8,13.55 -12.25,13.55 z m 27.1824,3.1 v -13.25 h 9.25 c 6.6,0 10.45,-4.6 10.45,-10.05 0,-5.4500004 -3.75,-10.0500034 -10.45,-10.0500034 h -13.4 V 33.900002 Z m 8.75,-16.95 h -8.75 V 4.2500016 h 8.75 c 3.95,0 6.65,2.6 6.65,6.3500004 0,3.75 -2.7,6.35 -6.65,6.35 z m 28.8457,16.95 V 4.2500016 h 10.6 v -3.700003 h -25.3 v 3.700003 h 10.55 V 33.900002 Z m 20.265692,0 V 0.5499986 H 97.443728 V 33.900002 Z m 23.613,0.6 c 5.9,0 9.9,-2.8 12.7,-6.6 l -3.55,-1.95 c -1.9,2.85 -5.35,4.85 -9.15,4.85 -7.3,0 -12.85,-5.65 -12.85,-13.55 0,-7.9500004 5.55,-13.5500004 12.85,-13.5500004 3.8,0 7.25,2.05 9.15,4.85 l 3.5,-1.95 C 135.20682,2.8500016 131.10682,0 125.20682,0 c -9.6,0 -17.15,7.0000016 -17.15,17.250002 0,10.25 7.55,17.25 17.15,17.25 z m 46.392,-0.6 -13.45,-33.3500034 h -5.15 l -13.4,33.3500034 h 4.75 l 2.95,-7.4 h 16.6 l 2.95,7.4 z m -8.95,-11.1 h -14.15 l 7.1,-17.9500004 z m 32.961,11.1 v -3.7 h -15.5 V 0.5499986 h -4.15 V 33.900002 Z"
     id="path2"
     style="fill:#000000;fill-opacity:1"
     inkscape:connector-curvature="0" />
  <path
     inkscape:connector-curvature="0"
     style="fill:#000000;fill-opacity:1"
     d="M 2.6120802,58.130723 V 42.122722 H 0.62008088 v 16.008001 z m 20.5981598,0 V 42.122722 h -1.992 v 12.504001 l -9.216,-12.504001 H 9.9622701 V 58.130723 H 11.95424 v -12.768 l 9.336,12.768 z m 13.2962,0 v -14.232 h 5.088 v -1.776001 h -12.144 v 1.776001 h 5.064 v 14.232 z m 21.8235,0 v -1.776 h -8.496 v -5.52 h 8.328 v -1.776 h -8.328 v -5.16 h 8.496 v -1.776001 h -10.488 v 16.008001 z m 16.2081,0 v -1.776 h -7.44 V 42.122722 h -1.992 v 16.008001 z m 15.8344,0 v -1.776 h -7.44 V 42.122722 h -1.992 v 16.008001 z m 8.3943,0 V 42.122722 h -1.992 v 16.008001 z m 14.934,0.312 c 2.616,0 4.8,-1.104 6.288,-2.76 v -5.784 h -7.488 v 1.776 h 5.496 v 3.264 c -0.792,0.792 -2.376,1.728 -4.296,1.728 -3.504,0 -6.168,-2.736 -6.168,-6.528 0,-3.816 2.664,-6.504 6.168,-6.504 1.92,0 3.624,0.912 4.632,2.208 l 1.584,-0.984 c -1.416,-1.752 -3.384,-3.000001 -6.216,-3.000001 -4.56,0 -8.232,3.312001 -8.232,8.280001 0,4.968 3.672,8.304 8.232,8.304 z m 23.614,-0.312 v -1.776 h -8.496 v -5.52 h 8.328 v -1.776 h -8.328 v -5.16 h 8.496 v -1.776001 h -10.488 v 16.008001 z m 20.024,0 V 42.122722 h -1.992 v 12.504001 l -9.216,-12.504001 h -2.04 v 16.008001 h 1.992 v -12.768 l 9.336,12.768 z m 14.928,0.288 c 2.832,0 4.752,-1.344 6.096,-3.168 l -1.704,-0.936 c -0.912,1.368 -2.568,2.328 -4.392,2.328 -3.504,0 -6.168,-2.712 -6.168,-6.504 0,-3.816 2.664,-6.504 6.168,-6.504 1.824,0 3.48,0.984 4.392,2.328 l 1.68,-0.936 c -1.272,-1.8 -3.24,-3.168001 -6.072,-3.168001 -4.608,0 -8.232,3.360001 -8.232,8.280001 0,4.92 3.624,8.28 8.232,8.28 z m 22.723,-0.288 v -1.776 h -8.496 v -5.52 h 8.328 v -1.776 h -8.328 v -5.16 h 8.496 v -1.776001 h -10.488 v 16.008001 z"
     id="path2-3" />
</svg>
